<?xml version="1.0" encoding="UTF-8" standalone="no"?>
<!DOCTYPE svg PUBLIC "-//W3C//DTD SVG 1.1//EN"
 "http://www.w3.org/Graphics/SVG/1.1/DTD/svg11.dtd">
<!-- Generated by graphviz version 2.39.20150215.0545 (20150215.0545)
 -->
<!-- Title: G Pages: 1 -->
<svg width="402pt" height="852pt"
 viewBox="0.00 0.00 402.00 852.00" xmlns="http://www.w3.org/2000/svg" xmlns:xlink="http://www.w3.org/1999/xlink">
<g id="graph0" class="graph" transform="scale(1 1) rotate(0) translate(4 848)">
<title>G</title>
<polygon fill="white" stroke="transparent" points="-4,4 -4,-848 398,-848 398,4 -4,4"/>
<g id="clust1" class="cluster"><title>cluster_Global</title>
<path fill="none" stroke="gray" d="M20,-8C20,-8 374,-8 374,-8 380,-8 386,-14 386,-20 386,-20 386,-824 386,-824 386,-830 380,-836 374,-836 374,-836 20,-836 20,-836 14,-836 8,-830 8,-824 8,-824 8,-20 8,-20 8,-14 14,-8 20,-8"/>
<text text-anchor="middle" x="197" y="-823.2" font-family="Times,serif" font-size="11.00" fill="gray">Global</text>
</g>
<!-- \\CsvDecoder -->
<g id="node1" class="node"><title>\\CsvDecoder</title>
<polygon fill="none" stroke="black" points="358.5,-754 275.5,-754 275.5,-718 358.5,-718 358.5,-754"/>
<text text-anchor="middle" x="317" y="-733.2" font-family="Courier,monospace" font-size="11.00">CsvDecoder</text>
</g>
<!-- \\DecoderInterface -->
<g id="node17" class="node"><title>\\DecoderInterface</title>
<polygon fill="none" stroke="black" points="161,-592 39,-592 39,-556 161,-556 161,-592"/>
<text text-anchor="middle" x="100" y="-571.2" font-family="Courier,monospace" font-size="11.00">DecoderInterface</text>
</g>
<!-- \\CsvDecoder&#45;&gt;\\DecoderInterface -->
<g id="edge1" class="edge"><title>\\CsvDecoder&#45;&gt;\\DecoderInterface</title>
<path fill="none" stroke="black" stroke-dasharray="1,5" d="M275.449,-719.608C268.769,-716.411 262.064,-712.845 256,-709 205.184,-676.784 153.885,-628.717 124.619,-599.474"/>
<polygon fill="none" stroke="black" points="126.843,-596.747 117.317,-592.11 121.873,-601.676 126.843,-596.747"/>
</g>
<!-- \\DecoderFactory -->
<g id="node2" class="node"><title>\\DecoderFactory</title>
<polygon fill="none" stroke="black" points="371.5,-808 262.5,-808 262.5,-772 371.5,-772 371.5,-808"/>
<text text-anchor="middle" x="317" y="-787.2" font-family="Courier,monospace" font-size="11.00">DecoderFactory</text>
</g>
<!-- \\DecoderFactoryInterface -->
<g id="node16" class="node"><title>\\DecoderFactoryInterface</title>
<polygon fill="none" stroke="black" points="184,-808 16,-808 16,-772 184,-772 184,-808"/>
<text text-anchor="middle" x="100" y="-787.2" font-family="Courier,monospace" font-size="11.00">DecoderFactoryInterface</text>
</g>
<!-- \\DecoderFactory&#45;&gt;\\DecoderFactoryInterface -->
<g id="edge2" class="edge"><title>\\DecoderFactory&#45;&gt;\\DecoderFactoryInterface</title>
<path fill="none" stroke="black" stroke-dasharray="1,5" d="M262.242,-790C241.68,-790 217.673,-790 194.529,-790"/>
<polygon fill="none" stroke="black" points="194.325,-786.5 184.325,-790 194.325,-793.5 194.325,-786.5"/>
</g>
<!-- \\ExcelDecoder -->
<g id="node3" class="node"><title>\\ExcelDecoder</title>
<polygon fill="none" stroke="black" points="365,-700 269,-700 269,-664 365,-664 365,-700"/>
<text text-anchor="middle" x="317" y="-679.2" font-family="Courier,monospace" font-size="11.00">ExcelDecoder</text>
</g>
<!-- \\ExcelDecoder&#45;&gt;\\DecoderInterface -->
<g id="edge3" class="edge"><title>\\ExcelDecoder&#45;&gt;\\DecoderInterface</title>
<path fill="none" stroke="black" stroke-dasharray="1,5" d="M275.169,-663.897C268.72,-660.988 262.159,-657.959 256,-655 217.069,-636.299 173.504,-613.519 142.327,-596.885"/>
<polygon fill="none" stroke="black" points="143.942,-593.78 133.473,-592.149 140.64,-599.952 143.942,-593.78"/>
</g>
<!-- \\GenericDecoder -->
<g id="node4" class="node"><title>\\GenericDecoder</title>
<polygon fill="none" stroke="black" points="371.5,-646 262.5,-646 262.5,-610 371.5,-610 371.5,-646"/>
<text text-anchor="middle" x="317" y="-625.2" font-family="Courier,monospace" font-size="11.00">GenericDecoder</text>
</g>
<!-- \\JsonDecoder -->
<g id="node5" class="node"><title>\\JsonDecoder</title>
<polygon fill="none" stroke="black" points="361.5,-592 272.5,-592 272.5,-556 361.5,-556 361.5,-592"/>
<text text-anchor="middle" x="317" y="-571.2" font-family="Courier,monospace" font-size="11.00">JsonDecoder</text>
</g>
<!-- \\JsonDecoder&#45;&gt;\\DecoderInterface -->
<g id="edge4" class="edge"><title>\\JsonDecoder&#45;&gt;\\DecoderInterface</title>
<path fill="none" stroke="black" stroke-dasharray="1,5" d="M272.301,-574C243.179,-574 204.547,-574 171.245,-574"/>
<polygon fill="none" stroke="black" points="171.097,-570.5 161.097,-574 171.097,-577.5 171.097,-570.5"/>
</g>
<!-- \\TxtDecoder -->
<g id="node6" class="node"><title>\\TxtDecoder</title>
<polygon fill="none" stroke="black" points="358.5,-538 275.5,-538 275.5,-502 358.5,-502 358.5,-538"/>
<text text-anchor="middle" x="317" y="-517.2" font-family="Courier,monospace" font-size="11.00">TxtDecoder</text>
</g>
<!-- \\TxtDecoder&#45;&gt;\\DecoderInterface -->
<g id="edge5" class="edge"><title>\\TxtDecoder&#45;&gt;\\DecoderInterface</title>
<path fill="none" stroke="black" stroke-dasharray="1,5" d="M275.417,-530.348C245.959,-537.679 205.703,-547.696 171.185,-556.286"/>
<polygon fill="none" stroke="black" points="170.005,-552.972 161.147,-558.784 171.696,-559.765 170.005,-552.972"/>
</g>
<!-- \\XmlDecoder -->
<g id="node7" class="node"><title>\\XmlDecoder</title>
<polygon fill="none" stroke="black" points="358.5,-484 275.5,-484 275.5,-448 358.5,-448 358.5,-484"/>
<text text-anchor="middle" x="317" y="-463.2" font-family="Courier,monospace" font-size="11.00">XmlDecoder</text>
</g>
<!-- \\XmlDecoder&#45;&gt;\\DecoderInterface -->
<g id="edge6" class="edge"><title>\\XmlDecoder&#45;&gt;\\DecoderInterface</title>
<path fill="none" stroke="black" stroke-dasharray="1,5" d="M275.497,-483.955C268.942,-486.91 262.264,-489.991 256,-493 217.069,-511.701 173.504,-534.481 142.327,-551.115"/>
<polygon fill="none" stroke="black" points="140.64,-548.048 133.473,-555.851 143.942,-554.22 140.64,-548.048"/>
</g>
<!-- \\EncoderFactory -->
<g id="node8" class="node"><title>\\EncoderFactory</title>
<polygon fill="none" stroke="black" points="371.5,-430 262.5,-430 262.5,-394 371.5,-394 371.5,-430"/>
<text text-anchor="middle" x="317" y="-409.2" font-family="Courier,monospace" font-size="11.00">EncoderFactory</text>
</g>
<!-- \\EncoderFactoryInterface -->
<g id="node18" class="node"><title>\\EncoderFactoryInterface</title>
<polygon fill="none" stroke="black" points="184,-430 16,-430 16,-394 184,-394 184,-430"/>
<text text-anchor="middle" x="100" y="-409.2" font-family="Courier,monospace" font-size="11.00">EncoderFactoryInterface</text>
</g>
<!-- \\EncoderFactory&#45;&gt;\\EncoderFactoryInterface -->
<g id="edge7" class="edge"><title>\\EncoderFactory&#45;&gt;\\EncoderFactoryInterface</title>
<path fill="none" stroke="black" stroke-dasharray="1,5" d="M262.242,-412C241.68,-412 217.673,-412 194.529,-412"/>
<polygon fill="none" stroke="black" points="194.325,-408.5 184.325,-412 194.325,-415.5 194.325,-408.5"/>
</g>
<!-- \\GenericEncoder -->
<g id="node9" class="node"><title>\\GenericEncoder</title>
<polygon fill="none" stroke="black" points="371.5,-376 262.5,-376 262.5,-340 371.5,-340 371.5,-376"/>
<text text-anchor="middle" x="317" y="-355.2" font-family="Courier,monospace" font-size="11.00">GenericEncoder</text>
</g>
<!-- \\HtmlEncoder -->
<g id="node10" class="node"><title>\\HtmlEncoder</title>
<polygon fill="none" stroke="black" points="361.5,-322 272.5,-322 272.5,-286 361.5,-286 361.5,-322"/>
<text text-anchor="middle" x="317" y="-301.2" font-family="Courier,monospace" font-size="11.00">HtmlEncoder</text>
</g>
<!-- \\EncoderInterface -->
<g id="node19" class="node"><title>\\EncoderInterface</title>
<polygon fill="none" stroke="black" points="161,-268 39,-268 39,-232 161,-232 161,-268"/>
<text text-anchor="middle" x="100" y="-247.2" font-family="Courier,monospace" font-size="11.00">EncoderInterface</text>
</g>
<!-- \\HtmlEncoder&#45;&gt;\\EncoderInterface -->
<g id="edge8" class="edge"><title>\\HtmlEncoder&#45;&gt;\\EncoderInterface</title>
<path fill="none" stroke="black" stroke-dasharray="1,5" d="M272.301,-292.877C243.053,-285.599 204.214,-275.933 170.814,-267.622"/>
<polygon fill="none" stroke="black" points="171.646,-264.222 161.097,-265.204 169.956,-271.015 171.646,-264.222"/>
</g>
<!-- \\JsonEncoder -->
<g id="node11" class="node"><title>\\JsonEncoder</title>
<polygon fill="none" stroke="black" points="361.5,-268 272.5,-268 272.5,-232 361.5,-232 361.5,-268"/>
<text text-anchor="middle" x="317" y="-247.2" font-family="Courier,monospace" font-size="11.00">JsonEncoder</text>
</g>
<!-- \\JsonEncoder&#45;&gt;\\EncoderInterface -->
<g id="edge9" class="edge"><title>\\JsonEncoder&#45;&gt;\\EncoderInterface</title>
<path fill="none" stroke="black" stroke-dasharray="1,5" d="M272.301,-250C243.179,-250 204.547,-250 171.245,-250"/>
<polygon fill="none" stroke="black" points="171.097,-246.5 161.097,-250 171.097,-253.5 171.097,-246.5"/>
</g>
<!-- \\XmlEncoder -->
<g id="node12" class="node"><title>\\XmlEncoder</title>
<polygon fill="none" stroke="black" points="358.5,-214 275.5,-214 275.5,-178 358.5,-178 358.5,-214"/>
<text text-anchor="middle" x="317" y="-193.2" font-family="Courier,monospace" font-size="11.00">XmlEncoder</text>
</g>
<!-- \\XmlEncoder&#45;&gt;\\EncoderInterface -->
<g id="edge10" class="edge"><title>\\XmlEncoder&#45;&gt;\\EncoderInterface</title>
<path fill="none" stroke="black" stroke-dasharray="1,5" d="M275.417,-206.348C245.959,-213.679 205.703,-223.696 171.185,-232.286"/>
<polygon fill="none" stroke="black" points="170.005,-228.972 161.147,-234.784 171.696,-235.765 170.005,-228.972"/>
</g>
<!-- \\FilterFactory -->
<g id="node13" class="node"><title>\\FilterFactory</title>
<polygon fill="none" stroke="black" points="368,-160 266,-160 266,-124 368,-124 368,-160"/>
<text text-anchor="middle" x="317" y="-139.2" font-family="Courier,monospace" font-size="11.00">FilterFactory</text>
</g>
<!-- \\FilterFactoryInterface -->
<g id="node20" class="node"><title>\\FilterFactoryInterface</title>
<polygon fill="none" stroke="black" points="181,-160 19,-160 19,-124 181,-124 181,-160"/>
<text text-anchor="middle" x="100" y="-139.2" font-family="Courier,monospace" font-size="11.00">FilterFactoryInterface</text>
</g>
<!-- \\FilterFactory&#45;&gt;\\FilterFactoryInterface -->
<g id="edge11" class="edge"><title>\\FilterFactory&#45;&gt;\\FilterFactoryInterface</title>
<path fill="none" stroke="black" stroke-dasharray="1,5" d="M265.849,-142C243.615,-142 216.871,-142 191.415,-142"/>
<polygon fill="none" stroke="black" points="191.359,-138.5 181.359,-142 191.359,-145.5 191.359,-138.5"/>
</g>
<!-- \\GenericFilter -->
<g id="node14" class="node"><title>\\GenericFilter</title>
<polygon fill="none" stroke="black" points="368,-106 266,-106 266,-70 368,-70 368,-106"/>
<text text-anchor="middle" x="317" y="-85.2" font-family="Courier,monospace" font-size="11.00">GenericFilter</text>
</g>
<!-- \\PassengersFilter -->
<g id="node15" class="node"><title>\\PassengersFilter</title>
<polygon fill="none" stroke="black" points="378,-52 256,-52 256,-16 378,-16 378,-52"/>
<text text-anchor="middle" x="317" y="-31.2" font-family="Courier,monospace" font-size="11.00">PassengersFilter</text>
</g>
<!-- \\FilterInterface -->
<g id="node21" class="node"><title>\\FilterInterface</title>
<polygon fill="none" stroke="black" points="158,-52 42,-52 42,-16 158,-16 158,-52"/>
<text text-anchor="middle" x="100" y="-31.2" font-family="Courier,monospace" font-size="11.00">FilterInterface</text>
</g>
<!-- \\PassengersFilter&#45;&gt;\\FilterInterface -->
<g id="edge12" class="edge"><title>\\PassengersFilter&#45;&gt;\\FilterInterface</title>
<path fill="none" stroke="black" stroke-dasharray="1,5" d="M255.976,-34C228.734,-34 196.518,-34 168.459,-34"/>
<polygon fill="none" stroke="black" points="168.326,-30.5001 158.326,-34 168.326,-37.5001 168.326,-30.5001"/>
</g>
</g>
</svg>
